<svg width="39" height="39" viewBox="0 0 39 39" fill="none" xmlns="http://www.w3.org/2000/svg">
<path d="M19.0424 0.551032C19.2292 0.550667 19.4159 0.550233 19.6026 0.549734C20.1069 0.548618 20.6111 0.548563 21.1154 0.548776C21.5369 0.548866 21.9583 0.548456 22.3798 0.548055C23.4305 0.547075 24.4811 0.547143 25.5317 0.547683C26.4434 0.548117 27.3552 0.54717 28.2669 0.54558C29.2049 0.543956 30.1429 0.543289 31.0808 0.543579C31.6068 0.543731 32.1327 0.543509 32.6586 0.542346C33.1524 0.541295 33.6463 0.541453 34.1402 0.542548C34.3214 0.542747 34.5027 0.542516 34.6839 0.541826C34.9312 0.540952 35.1784 0.541625 35.4257 0.54269C35.5334 0.541763 35.5334 0.541763 35.6432 0.540817C36.0592 0.544589 36.3431 0.595705 36.7036 0.825413C37.1847 1.31747 37.3106 1.74754 37.3131 2.42551C37.3138 2.51147 37.3138 2.51147 37.3144 2.59917C37.3156 2.78777 37.3155 2.97635 37.3153 3.16496C37.3157 3.29776 37.316 3.43057 37.3164 3.56337C37.3171 3.842 37.317 4.12062 37.3166 4.39925C37.3161 4.7519 37.3175 5.1045 37.3195 5.45714C37.3207 5.73192 37.3208 6.00669 37.3205 6.28147C37.3206 6.41118 37.321 6.5409 37.3218 6.67062C37.3291 7.92008 37.1915 9.15458 36.7769 10.3407C36.7519 10.4137 36.7268 10.4867 36.7009 10.562C35.7125 13.3314 33.6462 15.5071 30.9984 16.7637C27.3667 18.4381 23.5435 17.8346 19.5269 17.8346C19.5269 23.8347 19.5269 29.8349 19.5269 36.0168C15.5463 36.0168 11.9803 35.0277 8.80186 32.5815C8.71999 32.5189 8.63811 32.4564 8.55376 32.392C6.5754 30.8226 5.03632 28.9315 3.85544 26.7009C3.78011 26.5592 3.70245 26.4187 3.62461 26.2783C2.27919 23.7533 1.74745 20.8707 1.73739 18.0336C1.73706 17.9438 1.73706 17.9438 1.73673 17.8522C1.7361 16.2496 1.95295 14.6743 2.43389 13.1424C2.46478 13.0409 2.49567 12.9393 2.5275 12.8347C3.37928 10.1513 4.85443 7.79888 6.79092 5.76897C6.85788 5.69757 6.92485 5.62618 6.99384 5.55262C7.55034 4.97521 8.16164 4.48895 8.80186 4.0094C8.87383 3.95492 8.87383 3.95492 8.94726 3.89934C11.044 2.31988 13.5124 1.23135 16.0915 0.741623C16.16 0.727568 16.2285 0.713512 16.2991 0.699031C17.2107 0.53365 18.119 0.549835 19.0424 0.551032Z" fill="#4F65FE"/>
<path d="M1.84735 17.8346C7.68158 17.8346 13.5158 17.8346 19.5268 17.8346C19.5268 23.8347 19.5268 29.8349 19.5268 36.0168C15.5463 36.0168 11.9803 35.0277 8.80184 32.5815C8.67904 32.4877 8.67904 32.4877 8.55375 32.392C6.57539 30.8226 5.03631 28.9315 3.85542 26.7009C3.7801 26.5592 3.70243 26.4187 3.6246 26.2783C2.20735 23.6185 1.84735 20.8258 1.84735 17.8346Z" fill="#1049FE"/>
<path d="M19.5268 0.65784C19.5268 6.32617 19.5268 11.9945 19.5268 17.8346C13.6926 17.8346 7.85838 17.8346 1.84735 17.8346C1.84735 18.3323 1.84735 18.83 1.84735 19.3428C1.8197 19.3428 1.79205 19.3428 1.76356 19.3428C1.71217 17.2244 1.79308 15.1835 2.43387 13.1424C2.46476 13.0409 2.49566 12.9394 2.52748 12.8347C3.37927 10.1513 4.85442 7.79889 6.79091 5.76897C6.85787 5.69758 6.92484 5.62618 6.99383 5.55263C7.55033 4.97521 8.16163 4.48896 8.80184 4.0094C8.87382 3.95493 8.87382 3.95493 8.94725 3.89935C12.0826 1.53752 15.6161 0.51817 19.5268 0.65784Z" fill="#6955FE"/>
<path d="M33.0532 22.9906C33.2164 23.1084 33.3679 23.2325 33.5196 23.3647C33.5864 23.4205 33.6531 23.4763 33.7219 23.5339C34.988 24.6259 35.7121 25.9639 35.8657 27.6379C36.0016 29.8507 35.4804 31.7021 33.9998 33.384C32.353 35.1186 29.9071 35.9621 27.5443 36.0241C27.2152 36.0265 26.8861 36.0263 26.557 36.025C26.4359 36.0248 26.3149 36.0247 26.1939 36.0246C25.8777 36.0243 25.5616 36.0235 25.2455 36.0226C24.9219 36.0217 24.5984 36.0213 24.2748 36.0209C23.6418 36.02 23.0087 36.0186 22.3757 36.0168C22.3698 35.0953 22.3654 34.1738 22.3627 33.2523C22.3614 32.8242 22.3596 32.3961 22.3567 31.9681C22.354 31.5535 22.3525 31.139 22.3518 30.7245C22.3514 30.5678 22.3505 30.4111 22.3491 30.2544C22.3296 27.9317 22.7037 25.8965 24.3028 24.1188C24.3414 24.0757 24.3799 24.0325 24.4196 23.9881C26.7103 21.4616 30.2156 21.2005 33.0532 22.9906Z" fill="#099BFD"/>
<path d="M1.84735 17.8346C7.68158 17.8346 13.5158 17.8346 19.5268 17.8346C19.5268 23.8347 19.5268 29.8349 19.5268 36.0168C19.0844 36.0168 18.642 36.0168 18.1862 36.0168C18.1862 35.9892 18.1862 35.9615 18.1862 35.933C18.601 35.933 19.0157 35.933 19.4431 35.933C19.4431 30.0711 19.4431 24.2093 19.4431 18.1698C19.3878 18.1698 19.3325 18.1698 19.2755 18.1698C19.2755 18.1145 19.2755 18.0591 19.2755 18.0022C13.5518 18.0022 7.82821 18.0022 1.93114 18.0022C1.93114 18.5552 1.93114 19.1082 1.93114 19.678C1.90349 19.678 1.87584 19.678 1.84735 19.678C1.84735 19.0696 1.84735 18.4613 1.84735 17.8346Z" fill="#0531FE"/>
</svg>
